# xmcd CD database file
#
# Track frame offsets:
#	150
#	17417
#	38674
#	63520
#	90584
#	108651
#	132889
#	158874
#	184207
#	200578
#
# Disc length: 3074 seconds
#
# Revision: 0
# Processed by: cddbd v1.5.1PL0 Copyright (c) Steve Scherf et al.
# Submitted via: CDex 1.51
#
DISCID=810c000a
DTITLE=Unita - Through the Veils
DYEAR=1997
DGENRE=New Age
TTITLE0=Love is the Light
TTITLE1=Sweet Ellyon
TTITLE2=Father's Dream
TTITLE3=In My Garden
TTITLE4=Song of the Rose
TTITLE5=Magic Love
TTITLE6=Reminds Me Of A Dream
TTITLE7=The Dove's Cry
TTITLE8=Sadhana (A Path To Love)
TTITLE9=Through The Veils
EXTD=YEAR: 1997
EXTT0=
EXTT1=
EXTT2=
EXTT3=
EXTT4=
EXTT5=
EXTT6=
EXTT7=
EXTT8=
EXTT9=
PLAYORDER=
